<?xml version="1.0" encoding="UTF-8" standalone="no"?>
<!-- Created with Inkscape (http://www.inkscape.org/) -->

<svg
   width="512"
   height="512"
   viewBox="0 0 135.46667 135.46667"
   version="1.1"
   id="svg1"
   inkscape:version="1.3 (0e150ed6c4, 2023-07-21)"
   sodipodi:docname="transicon.svg"
   inkscape:export-filename="transicon.png"
   inkscape:export-xdpi="96"
   inkscape:export-ydpi="96"
   xmlns:inkscape="http://www.inkscape.org/namespaces/inkscape"
   xmlns:sodipodi="http://sodipodi.sourceforge.net/DTD/sodipodi-0.dtd"
   xmlns="http://www.w3.org/2000/svg"
   xmlns:svg="http://www.w3.org/2000/svg">
  <sodipodi:namedview
     id="namedview1"
     pagecolor="#ffffff"
     bordercolor="#000000"
     borderopacity="0.25"
     inkscape:showpageshadow="2"
     inkscape:pageopacity="0.0"
     inkscape:pagecheckerboard="0"
     inkscape:deskcolor="#d1d1d1"
     inkscape:document-units="mm"
     inkscape:zoom="1.6819304"
     inkscape:cx="183.42019"
     inkscape:cy="279.14353"
     inkscape:window-width="2880"
     inkscape:window-height="1772"
     inkscape:window-x="0"
     inkscape:window-y="0"
     inkscape:window-maximized="1"
     inkscape:current-layer="g25" />
  <defs
     id="defs1" />
  <g
     inkscape:label="Logo"
     inkscape:groupmode="layer"
     id="layer1">
    <path
       style="-inkscape-font-specification:'Noto Sans Heavy Italic';fill:#5d33cc;stroke-width:2.1113;paint-order:stroke fill markers"
       d="m 55.881007,46.560916 q -1.785299,0 -3.088087,-0.651393 -1.278661,-0.651393 -1.95418,-1.761175 -0.675518,-1.133906 -0.675518,-2.581447 0,-0.361885 0.02412,-0.772021 0.04825,-0.434262 0.120624,-0.820272 l 2.340191,-10.88068 h 4.608003 l -2.291939,10.760051 q -0.07237,0.337759 -0.120624,0.699644 -0.04825,0.337759 -0.04825,0.651393 0,0.699646 0.386011,1.109782 0.38601,0.38601 1.133906,0.38601 1.037405,0 1.640546,-0.699644 0.603142,-0.699644 0.965027,-2.388441 l 2.243685,-10.518795 h 4.608004 l -2.34019,10.977182 q -0.434262,2.098933 -1.326912,3.546474 -0.89265,1.44754 -2.412567,2.195437 -1.495792,0.747895 -3.811857,0.747895 z"
       id="text28"
       aria-label="U" />
    <g
       id="g25"
       inkscape:label="all"
       transform="matrix(0.76855003,0,0,0.76855003,16.73789,17.870917)">
      <path
         style="font-weight:500;font-stretch:condensed;font-size:90.4888px;line-height:1;font-family:'Barlow Condensed';-inkscape-font-specification:'Barlow Condensed,  Medium Condensed';fill:#46484b;fill-opacity:1;stroke-width:20.1625"
         d="m 31.659486,89.94219 -16.013651,4.059889 c -1.376508,0.941996 -2.978468,1.433111 -4.825973,1.433111 -0.238347,0 -0.468798,-0.01673 -0.69981,-0.03206 l -16.2310045,4.115463 c 0.2316959,0.30575 0.4566179,0.616417 0.7083609,0.907897 3.244465,3.57724 7.6118965,5.36616 13.1025317,5.36616 1.9965939,0 3.9931149,-0.37439 5.9897079,-1.12311 1.996595,-0.74874 3.785515,-1.8719 5.366151,-3.36936 0.166382,-0.16638 0.290942,-0.2079 0.374134,-0.12466 0.166383,0.0832 0.249423,0.20775 0.249423,0.37414 v 1.99681 c 0,0.83191 0.415912,1.24782 1.247826,1.24782 h 9.483765 c 0.831914,0 1.248539,-0.41591 1.248539,-1.24782 z"
         id="path18" />
      <path
         style="font-weight:500;font-stretch:condensed;font-size:90.4888px;line-height:1;font-family:'Barlow Condensed';-inkscape-font-specification:'Barlow Condensed,  Medium Condensed';fill:#46484b;fill-opacity:1;stroke-width:20.1625"
         d="m 56.622674,84.206569 -11.980129,3.037256 v 17.116095 c 0,0.83191 0.415913,1.24783 1.247827,1.24783 h 9.483763 c 0.831914,0 1.248539,-0.41592 1.248539,-1.24783 z"
         id="path17" />
      <path
         style="font-weight:500;font-stretch:condensed;font-size:90.4888px;line-height:1;font-family:'Barlow Condensed';-inkscape-font-specification:'Barlow Condensed,  Medium Condensed';fill:#46484b;fill-opacity:1;stroke-width:20.1625"
         d="m 81.205065,77.973852 -11.979416,3.037255 v 5.753825 c 0,6.072975 1.871959,10.897841 5.615573,14.475068 3.826805,3.57723 8.943021,5.36615 15.348751,5.36615 6.405744,0 11.521957,-1.70517 15.348757,-5.11602 3.82681,-3.494027 5.74029,-7.945217 5.74029,-13.352659 v -1.871384 c 0,-0.831914 -0.4159,-1.247826 -1.24782,-1.247826 l -9.48377,-0.125423 c -0.831905,0 -1.247825,0.416625 -1.247825,1.248539 v 1.247825 c 0,2.412551 -0.87334,4.492112 -2.620359,6.239132 -1.747032,1.74702 -3.910338,2.620363 -6.489273,2.620363 -2.662113,0 -4.824715,-0.956383 -6.488543,-2.869786 -1.663829,-1.913402 -2.496365,-4.368068 -2.496365,-7.362959 z"
         id="path16" />
      <path
         style="font-weight:500;font-stretch:condensed;font-size:90.4888px;line-height:1;font-family:'Barlow Condensed';-inkscape-font-specification:'Barlow Condensed,  Medium Condensed';fill:#46484b;fill-opacity:1;stroke-width:20.1625"
         d="m 133.13419,67.21592 -11.60528,2.942476 v 20.474727 c 0,5.823393 1.33148,9.774917 3.99361,11.854697 2.74532,2.07979 6.77988,3.11993 12.10413,3.11993 h 3.86819 c 0.83192,0 1.24782,-0.41592 1.24782,-1.24783 v -7.986511 c 0,-0.831914 -0.4159,-1.247826 -1.24782,-1.247826 h -1.12311 c -2.49574,0.0832 -4.32548,-0.498801 -5.49015,-1.746672 -1.16469,-1.331063 -1.74739,-3.660456 -1.74739,-6.988112 z"
         id="path15"
         sodipodi:nodetypes="ccscsssssccsc" />
      <path
         style="font-weight:500;font-stretch:condensed;font-size:90.4888px;line-height:1;font-family:'Barlow Condensed';-inkscape-font-specification:'Barlow Condensed,  Medium Condensed';fill:#8a8c8f;fill-opacity:1;stroke-width:20.1625"
         d="m 44.751013,58.894856 v 24.28593 L 56.731142,80.142818 V 63.884023 Z"
         id="path25"
         sodipodi:nodetypes="ccccc" />
      <path
         style="font-weight:500;font-stretch:condensed;font-size:90.4888px;line-height:1;font-family:'Barlow Condensed';-inkscape-font-specification:'Barlow Condensed,  Medium Condensed';fill:#5d33cc;fill-opacity:1;fill-rule:nonzero;stroke-width:20.1625"
         d="m 45.890372,42.091187 c -0.831914,0 -1.247827,0.415913 -1.247827,1.247826 v 11.380089 l 11.980129,4.989167 V 43.339013 c 0,-0.831913 -0.416625,-1.247826 -1.248539,-1.247826 z"
         id="path14" />
      <path
         style="font-weight:500;font-stretch:condensed;font-size:90.4888px;line-height:1;font-family:'Barlow Condensed';-inkscape-font-specification:'Barlow Condensed,  Medium Condensed';fill:#5d33cc;fill-opacity:1;fill-rule:nonzero;stroke-width:20.1625"
         d="m 90.189973,41.092784 c -6.40573,0 -11.521946,1.83044 -15.348751,5.490862 -3.743614,3.660423 -5.615573,8.443767 -5.615573,14.350358 V 77.746628 L 81.205065,74.709371 V 61.682984 c 0,-2.994891 0.832536,-5.449555 2.496365,-7.362958 1.663828,-1.913404 3.82643,-2.869787 6.488543,-2.869787 2.578935,0 4.742241,0.873345 6.489273,2.620365 1.747019,1.74702 2.620359,3.826579 2.620359,6.239131 v 1.248539 c 0,0.831914 0.41592,1.247826 1.247825,1.247826 l 9.48377,-0.374847 c 0.83192,0 1.24782,-0.415911 1.24782,-1.247826 v -1.62196 c 0,-3.494039 -0.87334,-6.613736 -2.62036,-9.359054 -1.66382,-2.828508 -4.11777,-5.03334 -7.36224,-6.613978 -3.161272,-1.663828 -6.863678,-2.495651 -11.106447,-2.495651 z"
         id="path13"
         sodipodi:nodetypes="scsccssssssccssccs" />
      <path
         style="font-weight:500;font-stretch:condensed;font-size:90.4888px;line-height:1;font-family:'Barlow Condensed';-inkscape-font-specification:'Barlow Condensed,  Medium Condensed';fill:#5d33cc;fill-opacity:1;fill-rule:nonzero;stroke-width:20.1625"
         d="m 122.77674,26.242868 c -0.83192,0 -1.24783,0.415911 -1.24783,1.247826 v 14.100935 c 0,0.332765 -0.16608,0.499558 -0.49884,0.499558 h -4.8666 c -0.83192,0 -1.24782,0.415912 -1.24782,1.247826 v 6.239132 c 0,0.831914 0.4159,1.247826 1.24782,1.247826 h 4.8666 c 0.33276,0 0.49884,0.166791 0.49884,0.499558 v 15.606023 l 11.60528,-2.941764 V 51.325529 c 0,-0.332767 0.16678,-0.499558 0.49956,-0.499558 h 8.73478 c 0.83192,0 1.24784,-0.415912 1.24784,-1.247826 v -6.239132 c 0,-0.831914 -0.41592,-1.247826 -1.24784,-1.247826 h -8.73478 c -0.33278,0 -0.49956,-0.166793 -0.49956,-0.499558 V 27.490694 c 0,-0.831915 -0.41591,-1.247826 -1.24783,-1.247826 z"
         id="path12" />
      <path
         style="font-weight:500;font-stretch:condensed;font-size:90.4888px;line-height:1;font-family:'Barlow Condensed';-inkscape-font-specification:'Barlow Condensed,  Medium Condensed';fill:#8a8c8f;fill-opacity:1;stroke-width:20.1625"
         d="m 7.6999401,37.187951 c -5.4906297,0 -9.8580695,1.788925 -13.1025317,5.366151 -3.1612706,3.494037 -4.7418824,8.318912 -4.7418824,14.475069 v 25.95564 c 0,5.367573 1.3195631,9.797253 3.930189,13.30991 L 9.653276,92.271889 C 7.5083273,92.02745 5.6902235,91.099786 4.2058835,89.474078 2.5420565,87.560679 1.710232,85.106008 1.710232,82.111119 V 57.778152 c 0,-2.994888 0.8318245,-5.449557 2.4956515,-7.362959 1.7470186,-1.913401 3.951855,-2.869787 6.6139785,-2.869787 2.329356,0 4.284359,0.790308 5.864996,2.370942 1.663827,1.497445 2.661733,3.493968 2.994498,5.989708 v 28.077159 c -0.332765,2.49574 -1.330671,4.533785 -2.994498,6.11442 -0.232748,0.2205 -0.490732,0.39063 -0.739716,0.578661 l 15.714344,-3.98435 V 45.131708 l -11.98013,-4.988455 v 1.287735 c 0,0.166381 -0.08304,0.290941 -0.249423,0.374134 -0.08318,0.08318 -0.207752,0.04167 -0.374134,-0.124706 -1.580635,-1.497445 -3.369558,-2.620623 -5.366151,-3.369345 -1.996592,-0.748722 -3.993117,-1.123114 -5.9897079,-1.123114 z"
         id="path24" />
      <path
         style="font-weight:500;font-stretch:condensed;font-size:90.4888px;line-height:1;font-family:'Barlow Condensed';-inkscape-font-specification:'Barlow Condensed,  Medium Condensed';fill:#5d33cc;fill-opacity:1;fill-rule:nonzero;stroke-width:20.1625"
         d="m 20.927182,14.352232 c -0.831913,0 -1.247826,0.415913 -1.247826,1.247826 V 36.28849 l 11.98013,4.989167 V 15.600058 c 0,-0.831913 -0.416626,-1.247826 -1.248539,-1.247826 z"
         id="path11"
         sodipodi:nodetypes="ssccsss" />
    </g>
  </g>
</svg>
